<svg width="541" height="534" viewBox="0 0 541 534" fill="none" xmlns="http://www.w3.org/2000/svg">
<g clip-path="url(#clip0_448_1387)">
<path d="M160.394 235.463L147.273 219.18L147.191 235.395L139.914 235.358L140.098 198.964L147.375 199.001L147.292 215.321L160.578 199.068L169.362 199.113L154.301 217.078L169.594 235.509L160.394 235.463ZM204.659 199.293L204.475 235.687L197.198 235.65L197.276 220.164L181.735 220.085L181.657 235.571L174.38 235.534L174.564 199.14L181.841 199.177L181.765 214.141L197.307 214.22L197.382 199.256L204.659 199.293ZM218.995 199.366L218.881 221.89C218.868 224.358 219.5 226.256 220.775 227.584C222.051 228.876 223.849 229.528 226.171 229.54C228.527 229.552 230.35 228.918 231.639 227.639C232.927 226.324 233.578 224.433 233.59 221.965L233.704 199.44L241.033 199.478L240.92 221.95C240.904 225.044 240.215 227.665 238.853 229.813C237.525 231.927 235.733 233.517 233.475 234.583C231.251 235.649 228.771 236.175 226.034 236.161C223.331 236.148 220.873 235.597 218.661 234.508C216.483 233.419 214.759 231.811 213.487 229.684C212.216 227.522 211.589 224.895 211.604 221.801L211.718 199.328L218.995 199.366ZM260.405 236.336C257.875 236.323 255.59 235.877 253.551 234.998C251.545 234.119 249.957 232.859 248.787 231.22C247.618 229.58 247.021 227.647 246.997 225.423L254.794 225.462C254.89 226.958 255.404 228.142 256.335 229.016C257.301 229.89 258.616 230.331 260.279 230.339C261.977 230.348 263.313 229.955 264.288 229.161C265.262 228.331 265.753 227.256 265.759 225.935C265.765 224.857 265.44 223.97 264.785 223.271C264.13 222.572 263.301 222.029 262.299 221.642C261.33 221.22 259.981 220.761 258.251 220.266C255.898 219.558 253.979 218.871 252.492 218.203C251.04 217.5 249.78 216.468 248.713 215.107C247.68 213.711 247.17 211.866 247.181 209.572C247.192 207.417 247.739 205.543 248.821 203.949C249.904 202.356 251.417 201.147 253.362 200.323C255.307 199.463 257.527 199.04 260.022 199.053C263.764 199.072 266.792 200.008 269.104 201.863C271.451 203.682 272.738 206.226 272.964 209.495L264.959 209.454C264.896 208.202 264.364 207.174 263.363 206.37C262.397 205.53 261.1 205.107 259.471 205.098C258.05 205.091 256.905 205.45 256.035 206.176C255.2 206.902 254.779 207.96 254.771 209.35C254.767 210.324 255.074 211.142 255.695 211.806C256.35 212.435 257.144 212.96 258.078 213.382C259.046 213.769 260.395 214.228 262.125 214.758C264.478 215.465 266.398 216.17 267.884 216.873C269.371 217.576 270.648 218.625 271.715 220.021C272.782 221.417 273.31 223.245 273.299 225.504C273.289 227.451 272.777 229.256 271.764 230.919C270.751 232.582 269.271 233.913 267.325 234.911C265.38 235.875 263.073 236.35 260.405 236.336ZM309.835 199.828L309.65 236.222L302.373 236.185L302.451 220.699L286.909 220.62L286.831 236.106L279.554 236.069L279.738 199.675L287.015 199.711L286.939 214.676L302.48 214.755L302.558 199.79L309.835 199.828ZM339.093 229.437L324.643 229.363L322.217 236.286L314.576 236.247L327.808 199.867L336.28 199.91L349.142 236.423L341.449 236.384L339.093 229.437ZM337.147 223.587L331.975 208.335L326.647 223.533L337.147 223.587Z" fill="black"/>
<path d="M378.892 200.179L378.863 206.07L369.195 206.021L369.042 236.523L361.765 236.487L361.918 205.984L352.25 205.935L352.279 200.043L378.892 200.179ZM391.451 206.134L391.404 215.259L403.619 215.321L403.588 221.109L391.375 221.047L391.326 230.693L405.101 230.763L405.069 236.707L384.018 236.6L384.202 200.153L405.254 200.26L405.225 206.204L391.451 206.134ZM410.007 218.482C410.024 214.902 410.839 211.708 412.447 208.9C414.09 206.058 416.302 203.862 419.083 202.312C421.896 200.728 425.037 199.944 428.503 199.962C432.557 199.982 436.103 201.043 439.141 203.144C442.179 205.245 444.295 208.141 445.491 211.832L437.122 211.79C436.299 210.047 435.127 208.738 433.608 207.861C432.121 206.985 430.391 206.541 428.416 206.531C426.302 206.52 424.411 207.015 422.745 208.014C421.11 208.979 419.819 210.363 418.875 212.166C417.965 213.969 417.503 216.087 417.492 218.52C417.48 220.919 417.919 223.041 418.811 224.888C419.738 226.701 421.012 228.115 422.638 229.131C424.295 230.113 426.181 230.609 428.295 230.62C430.27 230.63 432.005 230.204 433.498 229.343C435.029 228.447 436.213 227.132 437.053 225.398L445.422 225.441C444.191 229.154 442.046 232.046 438.985 234.116C435.959 236.151 432.404 237.159 428.315 237.138C424.85 237.12 421.717 236.322 418.918 234.744C416.155 233.131 413.963 230.912 412.349 228.088C410.769 225.264 409.99 222.063 410.007 218.482ZM481.859 200.702L481.674 237.096L474.397 237.059L474.475 221.574L458.936 221.495L458.855 236.98L451.578 236.943L451.763 200.549L459.04 200.586L458.965 215.551L474.507 215.63L474.582 200.665L481.859 200.702Z" fill="#685712"/>
<path d="M63.7067 230.02L114.632 230.28C115.566 230.283 116.463 229.915 117.127 229.255C117.79 228.594 118.166 227.696 118.171 226.758L118.33 195.396C118.335 194.457 117.968 193.555 117.311 192.888C116.654 192.221 115.76 191.844 114.826 191.839L63.901 191.58C62.9669 191.575 62.0694 191.944 61.4055 192.604C60.7419 193.264 60.3662 194.163 60.3616 195.101L60.2031 226.463C60.2005 226.928 60.2891 227.388 60.4641 227.819C60.6388 228.249 60.8961 228.641 61.2216 228.971C61.547 229.301 61.9339 229.564 62.3602 229.744C62.7867 229.924 63.2441 230.018 63.7067 230.02ZM67.3868 198.676L111.269 198.899L111.146 223.183L67.2641 222.959L67.3868 198.676ZM121.228 233.86L57.0737 233.534C56.6431 233.532 56.2293 233.702 55.9232 234.006C55.6174 234.31 55.4441 234.724 55.4421 235.157L55.4219 239.108C55.4199 239.521 55.5723 239.916 55.8475 240.219L58.1349 242.733C58.2862 242.898 58.4699 243.031 58.6746 243.122C58.879 243.213 59.1002 243.261 59.324 243.262L118.712 243.564C119.145 243.566 119.561 243.394 119.869 243.085L122.348 240.595C122.65 240.291 122.821 239.88 122.824 239.45L122.844 235.5C122.846 235.067 122.677 234.651 122.374 234.344C122.071 234.036 121.659 233.863 121.228 233.86ZM95.2577 239.396C95.2566 239.595 95.1249 239.756 94.962 239.755L83.279 239.696C83.1164 239.695 82.9861 239.533 82.9873 239.334L82.9954 237.723C82.9963 237.524 83.1279 237.366 83.2908 237.367L94.9739 237.426C95.1367 237.427 95.2667 237.587 95.2658 237.786L95.2577 239.396Z" fill="#685712"/>
<path d="M268.802 32.9428L147.047 179.878L205.143 179.878L188.456 144.539C205.349 123.254 245.44 73.6139 270.656 45.3429C295.873 17.0717 319.07 10.4171 327.517 10.6237L327.517 1.32422L251.497 1.32422L251.497 10.6237C273.746 9.13573 274.364 25.5034 268.802 32.9428Z" fill="#B48F2B"/>
<path d="M51.9116 375.791C51.9116 398.11 19.3611 399.97 3.08594 398.11L3.08594 408.029L179.229 408.029L179.229 398.11C136.707 398.606 127.313 383.438 127.931 375.791L127.931 254.274L51.9116 254.274L51.9116 375.791Z" fill="#B48F2B"/>
<path d="M407.271 375.791C407.271 398.11 374.72 399.97 358.445 398.11L358.445 408.029L534.589 408.029L534.589 398.11C492.068 398.606 482.671 383.438 483.289 375.791L483.289 254.274L407.271 254.274L407.271 375.791Z" fill="#B48F2B"/>
<path d="M127.895 32.9436C127.895 10.6243 160.446 8.76431 176.721 10.6243L176.721 0.70459L0.578125 0.70459L0.578125 10.6243C43.0996 10.1283 52.4938 25.2971 51.8759 32.9436L51.8759 179.879L127.895 179.879L127.895 32.9436Z" fill="#B48F2B"/>
<path d="M483.292 32.9436C483.292 10.6243 515.843 8.76431 532.12 10.6243L532.12 0.70459L355.977 0.70459L355.977 10.6243C398.498 10.1283 407.892 25.2971 407.274 32.9436L407.274 179.879L483.292 179.879L483.292 32.9436Z" fill="#B48F2B"/>
<path d="M239.156 255.515L155.102 255.515C186.622 333.632 257.079 456.387 312.704 496.067C368.326 535.746 456.089 538.846 495.645 528.927C535.198 519.006 543.234 491.727 537.055 471.888C530.872 452.048 489.463 455.767 508.623 481.189C523.95 501.524 518.305 512.393 513.566 515.287C496.263 526.859 446.696 539.217 386.868 496.067C327.041 452.917 263.465 317.72 239.156 255.515Z" fill="#B48F2B"/>
<path d="M435.7 466.598C435.7 469.779 435.841 472.864 436.104 475.804L460.32 475.804C460.583 472.864 460.724 469.779 460.724 466.598C460.724 463.42 460.583 460.335 460.317 457.395L436.107 457.395C435.841 460.335 435.7 463.42 435.7 466.598ZM431.082 457.395C430.822 460.457 430.692 463.527 430.692 466.598C430.692 469.755 430.828 472.838 431.079 475.804L411.801 475.804C411.065 472.858 410.672 469.776 410.672 466.598C410.672 463.423 411.065 460.341 411.801 457.395L431.082 457.395ZM436.699 452.372L459.725 452.372C458.983 447.306 457.863 442.79 456.474 439.079C455.171 435.609 453.687 432.973 452.168 431.252C450.643 429.526 449.301 428.94 448.212 428.94C447.123 428.94 445.781 429.528 444.256 431.252C442.734 432.976 441.25 435.609 439.95 439.079C438.561 442.79 437.438 447.306 436.696 452.372M465.342 457.395C465.596 460.361 465.732 463.443 465.732 466.598C465.732 469.755 465.596 472.838 465.345 475.804L484.623 475.804C485.359 472.858 485.752 469.776 485.752 466.598C485.752 463.423 485.359 460.341 484.623 457.395L465.342 457.395ZM482.983 452.372L464.782 452.372C463.996 446.703 462.754 441.579 461.16 437.315C460.141 434.592 458.951 432.156 457.6 430.128C469.145 433.112 478.539 441.463 482.98 452.372M431.642 452.372L413.444 452.372C417.882 441.463 427.279 433.112 438.824 430.131C437.473 432.156 436.283 434.592 435.264 437.315C433.667 441.579 432.428 446.703 431.642 452.372ZM431.637 480.827L413.444 480.827C417.882 491.73 427.268 500.079 438.804 503.065C437.452 501.04 436.268 498.604 435.249 495.884C433.655 491.617 432.419 486.496 431.637 480.827ZM456.488 494.12C457.871 490.412 458.989 485.893 459.731 480.827L436.693 480.827C437.432 485.893 438.55 490.412 439.936 494.12C441.235 497.59 442.717 500.226 444.241 501.947C445.763 503.671 447.112 504.256 448.212 504.256C449.312 504.256 450.661 503.671 452.183 501.947C453.707 500.226 455.189 497.59 456.488 494.12ZM461.175 495.884C462.769 491.62 464.005 486.496 464.787 480.827L482.98 480.827C478.541 491.73 469.156 500.079 457.62 503.065C458.972 501.04 460.156 498.601 461.175 495.884Z" fill="#685712"/>
</g>
<defs>
<clipPath id="clip0_448_1387">
<rect width="540" height="533" fill="white" transform="translate(0.609375 0.703613)"/>
</clipPath>
</defs>
</svg>
